<?xml version="1.0" encoding="utf-8"?>
<!-- Generator: Adobe Illustrator 25.0.1, SVG Export Plug-In . SVG Version: 6.00 Build 0)  -->
<svg version="1.1" id="Layer_1" xmlns="http://www.w3.org/2000/svg" xmlns:xlink="http://www.w3.org/1999/xlink" x="0px" y="0px"
	 width="20px" height="20px" viewBox="0 0 20 20" style="enable-background:new 0 0 20 20;" xml:space="preserve">
<style type="text/css">
	.st0{fill:#435F9C;}
	.st1{fill:#FFFFFF;}
</style>
<g>
	<path class="st0" d="M19.5,9.9c0,5-3.8,9.1-8.7,9.5c-0.3,0-0.5,0-0.8,0c-0.7,0-1.4-0.1-2.1-0.2c-4.3-1-7.5-4.8-7.5-9.3
		c0-5.2,4.3-9.5,9.5-9.5C15.4,0.4,19.5,4.6,19.5,9.9z"/>
	<g>
		<path class="st1" d="M11.2,7.9c0.1-0.2,0.4-0.3,0.9-0.3c0.4,0,0.9,0.1,1.3,0.2l0.4-2c-0.8-0.3-1.5-0.3-2.4-0.3
			c-0.8,0-1.4,0.1-2,0.4c-0.5,0.3-0.9,0.6-1.1,1C8.2,7.4,8.1,8.1,8.1,9v0.8H6.4v2.3h1.6v7.2c0.7,0.2,1.3,0.2,2.1,0.2
			c0.3,0,0.5,0,0.8,0v-7.3h2.1V9.8h-2.1V9C10.9,8.4,10.9,8.1,11.2,7.9z"/>
	</g>
</g>
</svg>
