<?xml version="1.0" encoding="utf-8"?>
<!-- Generator: Adobe Illustrator 25.3.1, SVG Export Plug-In . SVG Version: 6.00 Build 0)  -->
<svg version="1.1" id="Layer_1" xmlns="http://www.w3.org/2000/svg" xmlns:xlink="http://www.w3.org/1999/xlink" x="0px" y="0px"
	 width="220px" height="45px" viewBox="0 0 220 45" style="enable-background:new 0 0 220 45;" xml:space="preserve">
<style type="text/css">
	.st0{fill:#FFFFFF;}
	.st1{fill:#A2C100;}
</style>
<g>
	<polygon class="st0" points="42.1,7.9 24.3,7.9 22.4,11 35.2,18.7 	"/>
	<polygon class="st1" points="34.7,19.4 10,4.5 10,21.7 13.9,24.1 	"/>
	<polygon class="st0" points="27.1,33.8 38.2,40.5 38.2,23.3 35.1,21.4 	"/>
	<polygon class="st1" points="13.5,25.6 6.1,37.1 23.9,37.1 34.3,20.9 	"/>
</g>
<g>
	<path class="st0" d="M59.3,27.3v-7.9c1.8,0,2.7-0.7,2.7-2.1c0-1.3-0.7-1.9-2.1-1.9c-1.4,0-2.1,0.9-2.1,2.6v19.6h-8.9V19
		c0-1.9,0.2-3.5,0.6-4.8c0.4-1.2,1.1-2.4,2-3.5c1.1-1.2,2.4-2.1,4-2.8s3.2-1,4.9-1c3,0,5.6,1,7.7,3.1c2.1,2.1,3.1,4.6,3.1,7.6
		c0,2.9-0.9,5.3-2.8,7.2c-1.7,1.7-4.3,2.5-7.7,2.5L59.3,27.3z"/>
	<path class="st0" d="M82.5,7.6v30h-8.2v-30H82.5z"/>
	<path class="st0" d="M99.4,29.4v8.5c-0.7,0.1-1.3,0.2-1.8,0.2c-3.3,0-6-1.1-8.2-3.3s-3.3-4.9-3.3-8.2c0-3.2,1.1-5.9,3.3-8.1
		c2.2-2.2,4.9-3.3,8.1-3.3c3.5,0,6.3,1,8.4,3.1c2,2.1,3.1,4.9,3.1,8.5v10.7h-8.2V27.5c0-1.2-0.3-2.1-0.8-2.8c-0.6-0.7-1.3-1-2.3-1
		c-0.9,0-1.6,0.3-2.2,0.9s-0.9,1.4-0.9,2.2c0,0.9,0.3,1.7,0.9,2.2c0.6,0.6,1.3,0.9,2.2,0.9C98.2,30,98.8,29.8,99.4,29.4z"/>
	<path class="st0" d="M121,7.6V16h3.7v8.7H121c0,1.7,0.3,2.9,0.8,3.6c0.5,0.7,1.6,1,3,1v8.6c-0.4,0-0.7,0-0.9,0
		c-1.9,0-3.6-0.4-5.3-1.3c-1.6-0.9-3-2-4-3.5c-1.3-1.9-1.9-4.4-1.9-7.5v-18H121z"/>
	<path class="st0" d="M140.7,20.6v8.6H137v8.4h-8.2V19c0-2.1,0.4-3.9,1.1-5.4c0.9-1.9,2.3-3.4,4.1-4.6c1.9-1.2,3.8-1.8,5.8-1.8
		l0.9,0v8.6c-0.2,0-0.3,0-0.4,0c-1,0-1.8,0.3-2.4,1c-0.6,0.7-0.8,1.7-0.8,2.9v0.7H140.7z"/>
	<path class="st0" d="M154.7,15.3c3.1,0,5.8,1.1,8,3.4c2.2,2.2,3.3,4.9,3.3,8c0,3.2-1.1,5.9-3.4,8.1c-2.2,2.2-5,3.3-8.1,3.3
		s-5.9-1.1-8.2-3.4c-2.3-2.2-3.4-4.9-3.4-8.1c0-3.2,1.1-5.9,3.4-8.1S151.3,15.3,154.7,15.3z M154.4,23.4c-0.9,0-1.6,0.3-2.2,1
		c-0.6,0.6-0.9,1.4-0.9,2.3c0,0.9,0.3,1.7,0.9,2.3c0.6,0.6,1.4,1,2.2,1c0.9,0,1.6-0.3,2.3-1c0.6-0.6,0.9-1.4,0.9-2.3
		c0-0.9-0.3-1.7-0.9-2.3C156.1,23.7,155.3,23.4,154.4,23.4z"/>
	<path class="st0" d="M181.4,15.5v8.8c-0.6-0.3-1.1-0.5-1.6-0.5c-1.5,0-2.2,1.1-2.2,3.4v10.4h-8.2v-12c0-3.2,0.9-5.7,2.6-7.6
		c1.7-1.9,4-2.8,6.9-2.8C179.6,15.3,180.4,15.4,181.4,15.5z"/>
	<path class="st0" d="M213.9,37.6h-8.2V25.8c0-0.9-0.1-1.5-0.3-1.9s-0.5-0.5-1-0.5c-0.9,0-1.4,0.8-1.4,2.4v11.8h-8.2V25.8
		c0-0.9-0.1-1.5-0.3-1.9c-0.2-0.4-0.5-0.5-1-0.5c-0.9,0-1.4,0.8-1.4,2.4v11.8h-8.2V24.1c0-2.5,0.8-4.6,2.5-6.3
		c1.7-1.7,3.7-2.6,6-2.6c2.4,0,4.6,1,6.5,3.1c2.2-2.1,4.3-3.1,6.5-3.1c2.7,0,4.9,1,6.6,3c1.3,1.6,2,3.8,2,6.8V37.6z"/>
</g>
</svg>
