<?xml version="1.0" encoding="utf-8"?>
<!-- Generator: Adobe Illustrator 24.3.0, SVG Export Plug-In . SVG Version: 6.00 Build 0)  -->
<svg version="1.1" id="Layer_1" xmlns="http://www.w3.org/2000/svg" xmlns:xlink="http://www.w3.org/1999/xlink" x="0px" y="0px"
	 width="250px" height="41px" viewBox="0 0 250 41" style="enable-background:new 0 0 250 41;" xml:space="preserve">
<style type="text/css">
	.st0{clip-path:url(#SVGID_2_);fill:url(#SVGID_3_);}
	.st1{clip-path:url(#SVGID_5_);fill:url(#SVGID_6_);}
	.st2{clip-path:url(#SVGID_8_);fill:url(#SVGID_9_);}
	.st3{clip-path:url(#SVGID_11_);fill:url(#SVGID_12_);}
	.st4{clip-path:url(#SVGID_14_);fill:url(#SVGID_15_);}
	.st5{clip-path:url(#SVGID_17_);fill:url(#SVGID_18_);}
</style>
<g>
	<g>
		<defs>
			<path id="SVGID_1_" d="M2.8,0.2c-0.9,0-1.7,0.3-2.1,1C0.2,1.9,0,2.7,0,3.6C0,4.5,0.2,5.3,0.7,6c0.4,0.7,1.2,1,2.2,1h9.3v30
				c0,2.1,1.3,3.2,3.9,3.2c1.4,0,2.4-0.3,3-0.9c0.5-0.6,0.8-1.4,0.8-2.3V7h9.7c1.1,0,1.8-0.3,2.2-1c0.4-0.7,0.7-1.5,0.7-2.4
				c0-0.9-0.2-1.7-0.7-2.4c-0.5-0.7-1.2-1-2.1-1H2.8z"/>
		</defs>
		<clipPath id="SVGID_2_">
			<use xlink:href="#SVGID_1_"  style="overflow:visible;"/>
		</clipPath>
		
			<linearGradient id="SVGID_3_" gradientUnits="userSpaceOnUse" x1="-170.2061" y1="440.4065" x2="-168.9554" y2="440.4065" gradientTransform="matrix(183.5059 2.056 2.056 -183.5059 30343.8594 81187.3281)">
			<stop  offset="0" style="stop-color:#1C9CD8"/>
			<stop  offset="1" style="stop-color:#30AB65"/>
		</linearGradient>
		<polygon class="st0" points="0,-0.2 32.9,0.2 32.4,40.6 -0.4,40.3 		"/>
	</g>
	<g>
		<defs>
			<path id="SVGID_4_" d="M39.9,10.8c-1.1,0.9-2.1,1.9-2.8,3.1v-1.3c0-1-0.3-1.7-1-2.1c-0.7-0.4-1.5-0.6-2.6-0.6
				c-1.4,0-2.3,0.3-2.9,0.9c-0.5,0.6-0.8,1.4-0.8,2.2v23.7c0,2.2,1.2,3.4,3.7,3.4c1.3,0,2.3-0.3,2.8-0.8c0.6-0.5,0.9-1.4,0.9-2.6
				V25.8c0-1.8,0.1-3.4,0.4-4.7c0.3-1.3,1-2.3,2.2-2.9c0.8-0.4,1.6-0.7,2.3-0.9c0.7-0.2,1.4-0.3,2.2-0.5c0.7-0.1,1.2-0.3,1.6-0.6
				c0.4-0.3,0.7-0.6,0.9-0.9c0.2-0.3,0.4-0.7,0.4-1.1c0.1-0.4,0.1-0.8,0.1-1.1c0-0.3,0-0.7-0.1-1.1c-0.1-0.4-0.2-0.8-0.4-1.2
				c-0.2-0.4-0.6-0.7-1.1-1c-0.5-0.3-1.1-0.4-2-0.4C42.4,9.5,41.1,9.9,39.9,10.8"/>
		</defs>
		<clipPath id="SVGID_5_">
			<use xlink:href="#SVGID_4_"  style="overflow:visible;"/>
		</clipPath>
		
			<linearGradient id="SVGID_6_" gradientUnits="userSpaceOnUse" x1="-170.2062" y1="440.4011" x2="-168.9551" y2="440.4011" gradientTransform="matrix(183.4921 2.0558 2.0558 -183.4921 30341.541 81184.6875)">
			<stop  offset="0" style="stop-color:#1C9CD8"/>
			<stop  offset="1" style="stop-color:#30AB65"/>
		</linearGradient>
		<polygon class="st1" points="29.9,9.3 47.9,9.5 47.5,40.5 29.6,40.3 		"/>
	</g>
	<g>
		<defs>
			<path id="SVGID_7_" d="M69,10.8c-0.6,0.5-0.9,1.4-0.9,2.5v11.4c0,0.6,0,1.4,0,2.2c0,0.9-0.1,1.7-0.3,2.3c-0.1,0.5-0.3,1-0.5,1.5
				c-0.3,0.5-0.6,1-1.1,1.5c-0.5,0.5-1.1,0.9-1.8,1.2c-0.7,0.3-1.5,0.5-2.5,0.5c-1,0-1.8-0.2-2.4-0.5c-0.7-0.3-1.2-0.8-1.5-1.6
				c-0.2-0.4-0.3-0.9-0.4-1.5c-0.1-0.6-0.1-1.3-0.1-2.1V13.2c0-1.1-0.4-2-1.1-2.4c-0.7-0.5-1.6-0.7-2.7-0.7c-1.3,0-2.2,0.2-2.9,0.7
				c-0.6,0.5-0.9,1.3-0.9,2.4v15.2c0,1.4,0.1,2.9,0.3,4.5c0.2,1.6,0.7,3.1,1.7,4.4c1.8,2.4,4.5,3.5,7.9,3.5c2.2,0,4-0.5,5.4-1.4
				c1.4-0.9,2.4-1.9,3.1-3v0.5c0,1.3,0.4,2.2,1.1,2.7c0.7,0.4,1.6,0.7,2.5,0.7c1.4,0,2.4-0.3,2.9-1c0.6-0.6,0.9-1.5,0.9-2.5V13.3
				c0-1.1-0.3-2-1-2.5c-0.7-0.5-1.6-0.7-2.7-0.7C70.6,10.1,69.6,10.3,69,10.8"/>
		</defs>
		<clipPath id="SVGID_8_">
			<use xlink:href="#SVGID_7_"  style="overflow:visible;"/>
		</clipPath>
		
			<linearGradient id="SVGID_9_" gradientUnits="userSpaceOnUse" x1="-170.2062" y1="440.4005" x2="-168.9555" y2="440.4005" gradientTransform="matrix(183.498 2.0559 2.0559 -183.498 30342.5059 81187.4453)">
			<stop  offset="0" style="stop-color:#1C9CD8"/>
			<stop  offset="1" style="stop-color:#30AB65"/>
		</linearGradient>
		<polygon class="st2" points="49.8,9.8 76,10.1 75.7,41.1 49.5,40.8 		"/>
	</g>
	<g>
		<defs>
			<path id="SVGID_10_" d="M176.3,33.5c-0.6-0.6-0.9-1.3-0.9-2.3c0-0.7,0.3-1.4,0.8-2.1c0.5-0.7,1.7-1.2,3.4-1.6
				c0.6-0.2,1.6-0.3,2.8-0.5c1.3-0.2,2.6-0.4,4-0.5v2.1c0,1.7-0.6,3.1-1.9,4.2c-1.2,1.1-3,1.6-5.3,1.6
				C177.8,34.3,176.8,34,176.3,33.5 M88,17.1c1.2-1,2.5-1.5,4.1-1.5c1,0,1.8,0.2,2.5,0.5c0.7,0.3,1.3,0.8,1.7,1.4
				c0.5,0.6,0.8,1.2,1,1.9c0.2,0.7,0.3,1.4,0.3,2.1H86C86.2,19.5,86.9,18.1,88,17.1 M156.2,27.2c-1.3,2.3-3.3,5.6-4.5,6.2
				c-0.9-1.1-2-4.6-2.7-6.8c-2.1-6.5-4.8-14.5-11.5-14.5c-6.8,0-9.6,8.1-11.7,14.7c-0.7,2.2-1.8,5.4-2.6,6.6
				c-0.6-0.4-1.4-1.2-1.9-1.7c-3.6-3.5-9.5-8.8-21.4,0.1c-1.5,1.1-3.7,2.6-7,2.5c-4.3-0.1-6.7-2.4-7-7h15.9c1.2,0,2.1-0.2,2.7-0.6
				c0.6-0.4,1-1.2,1-2.3c0-4.8-1.2-8.5-3.5-11.1c-2.4-2.6-5.5-3.9-9.5-3.9c-2.5,0-4.6,0.5-6.4,1.4c-1.8,0.9-3.3,2.1-4.5,3.6
				c-1.2,1.5-2,3.2-2.6,5.1c-0.5,1.9-0.8,3.9-0.8,5.9c0,2.6,0.3,4.9,1,6.8c0.7,1.9,1.7,3.5,3,4.8c1.3,1.3,2.8,2.2,4.7,2.8
				c1.8,0.6,3.9,0.9,6.2,0.9c0.1,0,0.1,0,0.2,0c0.4,0,0.7,0,1,0c4.8,0,8.3-2.2,9.5-3.2c0.2-0.1,0.3-0.2,0.5-0.4
				c7.1-6,9.1-3.7,12.6-0.4c1.9,1.9,4,3.8,6.8,3.8c4.9,0,6.8-5.6,8.7-11.6c1.2-3.7,3.3-10,5.4-10c1.9,0,3.9,6.1,5.1,9.7
				c2,6,3.8,11.6,8.8,11.6c4.8,0,7.6-4.7,10.5-9.7c4-6.8,10.3-15.8,19.8-15.1v0c0.9,0,1.7,0.1,2.3,0.4c0.6,0.3,1.1,0.6,1.5,1.1
				c0.3,0.5,0.6,1,0.7,1.5c0.1,0.6,0.2,1.1,0.2,1.7v1.1c-1.6,0.1-3.2,0.2-4.6,0.4s-2.8,0.4-4.2,0.6c-1.3,0.2-2.5,0.6-3.6,1
				c-1.2,0.4-2.2,1-3,1.7c-0.9,0.7-1.5,1.6-2,2.7c-0.5,1.1-0.7,2.4-0.7,3.9c0,2.6,0.8,4.7,2.5,6.3c1.7,1.6,3.9,2.4,6.8,2.4
				c1.2,0,2.3-0.1,3.3-0.4c1-0.3,1.8-0.6,2.5-1c0.7-0.4,1.3-0.9,1.8-1.4c0.5-0.5,0.9-1.1,1.3-1.6v1c0,1.1,0.3,2,1,2.4
				c0.6,0.5,1.5,0.7,2.6,0.7c1.3,0,2.2-0.2,2.7-0.7c0.5-0.5,0.8-1.3,0.8-2.4v-17c0-3.6-0.9-6.3-2.8-8c-1.8-1.7-4.9-2.6-9.1-2.6
				c-0.1,0-0.2,0-0.4,0C166.5,9.5,160.4,20.1,156.2,27.2"/>
		</defs>
		<clipPath id="SVGID_11_">
			<use xlink:href="#SVGID_10_"  style="overflow:visible;"/>
		</clipPath>
		
			<linearGradient id="SVGID_12_" gradientUnits="userSpaceOnUse" x1="-170.2062" y1="440.4019" x2="-168.956" y2="440.4019" gradientTransform="matrix(183.5063 2.056 2.056 -183.5063 30343.9023 81190.2969)">
			<stop  offset="0" style="stop-color:#1C9CD8"/>
			<stop  offset="1" style="stop-color:#30AB65"/>
		</linearGradient>
		<polygon class="st3" points="78,8.1 193.9,9.5 193.5,42.2 77.7,40.8 		"/>
	</g>
	<g>
		<defs>
			<path id="SVGID_13_" d="M217.2,10.7c-0.5,0.4-0.9,1-1.3,1.9l-5.3,13.9c-0.6,1.6-1,3-1.2,4.3c-0.1-1.2-0.5-2.6-1.1-4.3l-5.3-14
				c-0.3-0.8-0.7-1.4-1.2-1.8c-0.5-0.4-1.3-0.7-2.4-0.7c-1.3,0-2.3,0.3-3,0.9c-0.7,0.6-1.1,1.4-1.1,2.3c0,0.3,0,0.6,0.1,0.9
				c0,0.3,0.2,0.8,0.4,1.4l9.4,22.2c0.1,0.3,0.3,0.6,0.5,0.9c0.2,0.3,0.4,0.6,0.7,0.8c0.3,0.2,0.7,0.4,1.2,0.6
				c0.5,0.2,1,0.2,1.8,0.2c1.1,0,2-0.2,2.6-0.6c0.6-0.4,1.1-1,1.5-1.9l9.5-22.3c0.2-0.4,0.3-0.8,0.4-1.2c0.1-0.4,0.1-0.8,0.1-1.1
				c0-0.9-0.3-1.7-1-2.3c-0.7-0.6-1.6-0.9-2.9-0.9C218.5,10.1,217.7,10.3,217.2,10.7"/>
		</defs>
		<clipPath id="SVGID_14_">
			<use xlink:href="#SVGID_13_"  style="overflow:visible;"/>
		</clipPath>
		
			<linearGradient id="SVGID_15_" gradientUnits="userSpaceOnUse" x1="-170.2067" y1="440.4026" x2="-168.956" y2="440.4026" gradientTransform="matrix(183.5072 2.056 2.056 -183.5072 30344.0469 81189.9922)">
			<stop  offset="0" style="stop-color:#1C9CD8"/>
			<stop  offset="1" style="stop-color:#30AB65"/>
		</linearGradient>
		<polygon class="st4" points="195.2,9.7 223.6,10.1 223.3,40.7 194.9,40.3 		"/>
	</g>
	<g>
		<defs>
			<path id="SVGID_16_" d="M232.7,17.1c1.1-1,2.5-1.5,4.1-1.5c1,0,1.8,0.2,2.5,0.5c0.7,0.3,1.3,0.8,1.7,1.4c0.5,0.6,0.8,1.2,1,1.9
				c0.2,0.7,0.3,1.4,0.3,2.1h-11.7C230.9,19.5,231.6,18.1,232.7,17.1 M230.5,10.9c-1.8,0.9-3.3,2.1-4.5,3.6c-1.2,1.5-2,3.2-2.6,5.1
				c-0.5,1.9-0.8,3.9-0.8,5.9c0,2.6,0.3,4.9,1,6.8c0.7,1.9,1.7,3.5,3,4.8c1.3,1.3,2.8,2.2,4.7,2.8c1.8,0.6,3.9,0.9,6.2,0.9
				c1.6,0,3.2-0.2,4.8-0.6c1.6-0.4,3-1,4.2-1.7c0.9-0.6,1.5-1.1,1.9-1.6c0.4-0.5,0.6-1.1,0.6-1.8c0-1-0.3-1.8-0.9-2.6
				c-0.6-0.8-1.3-1.1-2-1.1c-0.7,0-1.2,0.2-1.7,0.5c-0.5,0.3-1,0.6-1.5,0.9c-0.6,0.3-1.3,0.7-2.1,1.1c-0.8,0.4-1.8,0.6-3,0.6
				c-4.5,0-6.9-2.3-7.3-7h15.9c1.2,0,2.1-0.2,2.7-0.6c0.6-0.4,1-1.2,1-2.3c0-4.8-1.2-8.5-3.5-11.1c-2.4-2.6-5.5-3.9-9.5-3.9
				C234.5,9.5,232.3,9.9,230.5,10.9"/>
		</defs>
		<clipPath id="SVGID_17_">
			<use xlink:href="#SVGID_16_"  style="overflow:visible;"/>
		</clipPath>
		
			<linearGradient id="SVGID_18_" gradientUnits="userSpaceOnUse" x1="-170.2068" y1="440.4032" x2="-168.9561" y2="440.4032" gradientTransform="matrix(183.5042 2.0559 2.0559 -183.5042 30343.5645 81188.4688)">
			<stop  offset="0" style="stop-color:#1C9CD8"/>
			<stop  offset="1" style="stop-color:#30AB65"/>
		</linearGradient>
		<polygon class="st5" points="222.7,9.2 250.3,9.5 250,41.2 222.3,40.8 		"/>
	</g>
</g>
</svg>
