<?xml version="1.0" encoding="utf-8"?>
<!-- Generator: Adobe Illustrator 25.0.1, SVG Export Plug-In . SVG Version: 6.00 Build 0)  -->
<svg version="1.1" id="Layer_1" xmlns="http://www.w3.org/2000/svg" xmlns:xlink="http://www.w3.org/1999/xlink" x="0px" y="0px"
	 width="20px" height="20px" viewBox="0 0 20 20" style="enable-background:new 0 0 20 20;" xml:space="preserve">
<style type="text/css">
	.st0{fill:url(#SVGID_1_);}
	.st1{fill-rule:evenodd;clip-rule:evenodd;fill:#FFFFFF;}
</style>
<g>
	<linearGradient id="SVGID_1_" gradientUnits="userSpaceOnUse" x1="9.8017" y1="-7.0562" x2="10.1476" y2="22.6919">
		<stop  offset="0.1322" style="stop-color:#45B549"/>
		<stop  offset="0.794" style="stop-color:#089748"/>
	</linearGradient>
	<path class="st0" d="M19.5,10c0,5.3-4.3,9.5-9.5,9.5c-5.2,0-9.5-4.3-9.5-9.5c0-5.2,4.3-9.5,9.5-9.5C15.2,0.5,19.5,4.7,19.5,10z"/>
	<g>
		<path class="st1" d="M15.6,8.6C15,6,12.7,4.2,10,4.2c-0.4,0-0.8,0-1.1,0.1c-3.8,0.8-5.8,5-4,8.4C5,12.8,5,12.9,5,13
			c-0.3,0.9-0.5,1.8-0.8,2.7c0,0.2,0,0.2,0.1,0.1c0.9-0.3,1.9-0.5,2.8-0.7c0.1,0,0.1,0,0.2,0c1.2,0.6,2.5,0.8,3.8,0.5
			C14.3,15,16.4,11.8,15.6,8.6z M10.8,14.7c-0.3,0.1-0.5,0.1-0.7,0.1c-1,0-1.8-0.2-2.6-0.7C7.4,14,7.3,14,7.2,14
			c-0.5,0.1-1,0.3-1.5,0.4c-0.1,0-0.1,0-0.1-0.1c0.1-0.5,0.3-1,0.4-1.5c0-0.1,0-0.2-0.1-0.3c-1-1.7-1-3.8,0.2-5.4
			C7.3,5.5,9,4.8,11,5.3c2,0.4,3.2,1.7,3.7,3.6C15.3,11.6,13.5,14.2,10.8,14.7z"/>
		<path class="st1" d="M11.5,12.7c-0.2,0-0.4,0-0.6-0.1c-1.3-0.4-2.3-1.2-3.1-2.3C7.5,9.9,7.2,9.5,7.1,9C7,8.4,7.2,7.8,7.6,7.4
			c0.2-0.1,0.6-0.2,0.8-0.1c0.1,0.1,0.1,0.1,0.1,0.2C8.7,7.9,8.9,8.3,9,8.6c0,0.1,0,0.2,0,0.2C8.9,9.1,8.8,9.2,8.7,9.4
			c-0.1,0.1-0.1,0.2,0,0.3c0.5,0.8,1.1,1.4,2,1.7c0.1,0.1,0.2,0,0.3-0.1c0.1-0.2,0.3-0.4,0.4-0.5c0.1-0.1,0.2-0.1,0.3-0.1
			c0.3,0.1,0.6,0.3,0.8,0.4c0.1,0,0.1,0.1,0.2,0.1c0.3,0.1,0.3,0.2,0.3,0.5c0,0.6-0.5,0.9-1,1.1C11.7,12.7,11.6,12.7,11.5,12.7z"/>
	</g>
</g>
</svg>
