<?xml version="1.0" encoding="utf-8"?>
<!-- Generator: Adobe Illustrator 25.3.1, SVG Export Plug-In . SVG Version: 6.00 Build 0)  -->
<svg version="1.1" id="Layer_1" xmlns="http://www.w3.org/2000/svg" xmlns:xlink="http://www.w3.org/1999/xlink" x="0px" y="0px"
	 width="24px" height="24px" viewBox="0 0 24 24" style="enable-background:new 0 0 24 24;" xml:space="preserve">
<style type="text/css">
	.st0{fill:#010101;}
</style>
<g>
	<path class="st0" d="M3.8,13.8H12c0.4,0,0.6-0.3,0.6-0.6v-3c0-0.4-0.3-0.6-0.6-0.6H3.8c-0.4,0-0.6,0.3-0.6,0.6v3
		C3.2,13.5,3.4,13.8,3.8,13.8z M4.4,10.8h6.9v1.7H4.4V10.8z"/>
	<path class="st0" d="M4.2,15H3.9c-0.4,0-0.6,0.3-0.6,0.6c0,0.4,0.3,0.6,0.6,0.6h0.3c0.4,0,0.6-0.3,0.6-0.6C4.8,15.3,4.5,15,4.2,15z
		"/>
	<path class="st0" d="M6.7,15H6.5c-0.4,0-0.6,0.3-0.6,0.6c0,0.4,0.3,0.6,0.6,0.6h0.3c0.4,0,0.6-0.3,0.6-0.6C7.4,15.3,7.1,15,6.7,15z
		"/>
	<path class="st0" d="M9.3,15H9c-0.4,0-0.6,0.3-0.6,0.6c0,0.4,0.3,0.6,0.6,0.6h0.3c0.4,0,0.6-0.3,0.6-0.6C9.9,15.3,9.7,15,9.3,15z"
		/>
	<path class="st0" d="M11.9,15h-0.3c-0.4,0-0.6,0.3-0.6,0.6c0,0.4,0.3,0.6,0.6,0.6h0.3c0.4,0,0.6-0.3,0.6-0.6
		C12.5,15.3,12.2,15,11.9,15z"/>
	<path class="st0" d="M4.2,17.6H3.9c-0.4,0-0.6,0.3-0.6,0.6c0,0.4,0.3,0.6,0.6,0.6h0.3c0.4,0,0.6-0.3,0.6-0.6
		C4.8,17.9,4.5,17.6,4.2,17.6z"/>
	<path class="st0" d="M6.7,17.6H6.5c-0.4,0-0.6,0.3-0.6,0.6c0,0.4,0.3,0.6,0.6,0.6h0.3c0.4,0,0.6-0.3,0.6-0.6
		C7.4,17.9,7.1,17.6,6.7,17.6z"/>
	<path class="st0" d="M9.3,17.6H9c-0.4,0-0.6,0.3-0.6,0.6c0,0.4,0.3,0.6,0.6,0.6h0.3c0.4,0,0.6-0.3,0.6-0.6
		C9.9,17.9,9.7,17.6,9.3,17.6z"/>
	<path class="st0" d="M11.9,17.6h-0.3c-0.4,0-0.6,0.3-0.6,0.6c0,0.4,0.3,0.6,0.6,0.6h0.3c0.4,0,0.6-0.3,0.6-0.6
		C12.5,17.9,12.2,17.6,11.9,17.6z"/>
	<path class="st0" d="M4.2,20.2H3.9c-0.4,0-0.6,0.3-0.6,0.6s0.3,0.6,0.6,0.6h0.3c0.4,0,0.6-0.3,0.6-0.6C4.8,20.4,4.5,20.2,4.2,20.2z
		"/>
	<path class="st0" d="M6.7,20.2H6.5c-0.4,0-0.6,0.3-0.6,0.6s0.3,0.6,0.6,0.6h0.3c0.4,0,0.6-0.3,0.6-0.6C7.4,20.4,7.1,20.2,6.7,20.2z
		"/>
	<path class="st0" d="M9.3,20.2H9c-0.4,0-0.6,0.3-0.6,0.6s0.3,0.6,0.6,0.6h0.3c0.4,0,0.6-0.3,0.6-0.6C9.9,20.4,9.7,20.2,9.3,20.2z"
		/>
	<path class="st0" d="M11.9,20.2h-0.3c-0.4,0-0.6,0.3-0.6,0.6s0.3,0.6,0.6,0.6h0.3c0.4,0,0.6-0.3,0.6-0.6
		C12.5,20.4,12.2,20.2,11.9,20.2z"/>
	<path class="st0" d="M23,0.6H8.7C8.3,0.6,8,0.9,8,1.2V7H1.2C0.9,7,0.6,7.3,0.6,7.6v15.3c0,0.4,0.3,0.6,0.6,0.6h13.3
		c0.4,0,0.6-0.3,0.6-0.6v-2.8h4c0.2,0,0.3-0.1,0.5-0.2l3.8-3.8c0.1-0.1,0.2-0.3,0.2-0.5V1.2C23.6,0.9,23.3,0.6,23,0.6z M13.9,22.3
		h-12v-14h12V22.3z M19.8,18v-1.6h1.6L19.8,18z M22.3,15.1h-3.2c-0.4,0-0.6,0.3-0.6,0.6v3.2h-3.3V7.6c0-0.4-0.3-0.6-0.6-0.6H9.3V1.9
		h13L22.3,15.1L22.3,15.1z"/>
	<path class="st0" d="M11.2,4.9h9.2c0.4,0,0.6-0.3,0.6-0.6s-0.3-0.6-0.6-0.6h-9.2c-0.4,0-0.6,0.3-0.6,0.6
		C10.6,4.6,10.9,4.9,11.2,4.9z"/>
	<path class="st0" d="M20.4,6.6h-3.3c-0.4,0-0.6,0.3-0.6,0.6c0,0.4,0.3,0.6,0.6,0.6h3.3c0.4,0,0.6-0.3,0.6-0.6
		C21,6.9,20.8,6.6,20.4,6.6z"/>
	<path class="st0" d="M20.4,9.6h-3.3c-0.4,0-0.6,0.3-0.6,0.6c0,0.4,0.3,0.6,0.6,0.6h3.3c0.4,0,0.6-0.3,0.6-0.6
		C21,9.9,20.8,9.6,20.4,9.6z"/>
	<path class="st0" d="M20.4,12.6h-3.3c-0.4,0-0.6,0.3-0.6,0.6c0,0.4,0.3,0.6,0.6,0.6h3.3c0.4,0,0.6-0.3,0.6-0.6
		C21,12.9,20.8,12.6,20.4,12.6z"/>
</g>
</svg>
