<?xml version="1.0" encoding="utf-8"?>
<!-- Generator: Adobe Illustrator 25.3.1, SVG Export Plug-In . SVG Version: 6.00 Build 0)  -->
<svg version="1.1" id="Layer_1" xmlns="http://www.w3.org/2000/svg" xmlns:xlink="http://www.w3.org/1999/xlink" x="0px" y="0px"
	 width="24px" height="24px" viewBox="0 0 24 24" style="enable-background:new 0 0 24 24;" xml:space="preserve">
<style type="text/css">
	.st0{fill:#010101;}
</style>
<path class="st0" d="M20.7,3.6L20.7,3.6c-4.8-0.5-7.5-2.6-7.5-2.6c-0.7-0.6-1.7-0.6-2.4,0c0,0-2.7,2.2-7.5,2.6
	c-1,0.1-1.7,0.9-1.7,1.9c0,13.6,9.3,17.8,9.7,17.9c0.2,0.1,0.5,0.1,0.8,0.1s0.5,0,0.8-0.1c0.4-0.2,9.7-4.4,9.7-17.9
	C22.4,4.5,21.7,3.7,20.7,3.6z M12,21.7c-0.1-0.1-1.8-0.8-3.6-2.7l0.2-2.1c0.1-1.2,1.1-2,2.3-2h2.3c1.2,0,2.2,0.9,2.3,2l0.2,2.1
	C13.8,20.9,12.1,21.6,12,21.7z M12,12.7c-1.2,0-2.1-0.9-2.1-2.1s0.9-2.1,2.1-2.1s2.1,0.9,2.1,2.1S13.2,12.7,12,12.7z M17.3,17.1
	l0-0.4C17,15.2,16,14,14.7,13.4c0.7-0.7,1.2-1.7,1.2-2.8c0-2.2-1.8-3.9-3.9-3.9s-3.9,1.8-3.9,3.9c0,1.1,0.5,2.1,1.2,2.8
	C8,14,7,15.2,6.8,16.7l0,0.4C5,14.5,3.4,10.8,3.5,5.4c5.5-0.5,8.5-3,8.6-3c0.1,0.1,3.2,2.5,8.5,3l0,0C20.6,10.8,19.1,14.6,17.3,17.1
	z"/>
</svg>
