<?xml version="1.0" encoding="utf-8"?>
<!-- Generator: Adobe Illustrator 25.0.1, SVG Export Plug-In . SVG Version: 6.00 Build 0)  -->
<svg version="1.1" id="Layer_1" xmlns="http://www.w3.org/2000/svg" xmlns:xlink="http://www.w3.org/1999/xlink" x="0px" y="0px"
	 width="24px" height="24px" viewBox="0 0 24 24" style="enable-background:new 0 0 24 24;" xml:space="preserve">
<style type="text/css">
	.st0{fill-rule:evenodd;clip-rule:evenodd;}
</style>
<path class="st0" d="M4,6.3l6.5,6.8c0.8,0.8,2,0.8,2.8,0.1c0,0,0.1,0,0.1-0.1L20,6.3c0.8-0.8,2-0.8,2.8-0.1c0,0,0.1,0.1,0.1,0.1l0,0
	c0.8,0.8,0.8,2.2,0,3l-9.4,9.8c-0.8,0.8-2.1,0.8-2.9,0.1c0,0,0,0-0.1-0.1L1.1,9.3c-0.8-0.8-0.8-2.2,0-3l0,0C1.9,5.5,3.1,5.5,4,6.3
	C4,6.3,4,6.3,4,6.3z"/>
</svg>
