<?xml version="1.0" encoding="utf-8"?>
<!-- Generator: Adobe Illustrator 25.3.1, SVG Export Plug-In . SVG Version: 6.00 Build 0)  -->
<svg version="1.1" id="Layer_1" xmlns="http://www.w3.org/2000/svg" xmlns:xlink="http://www.w3.org/1999/xlink" x="0px" y="0px"
	 width="24px" height="24px" viewBox="0 0 24 24" style="enable-background:new 0 0 24 24;" xml:space="preserve">
<style type="text/css">
	.st0{fill:#010101;}
</style>
<path class="st0" d="M5.4,23.5h13.2c1.9,0,3.5-1.6,3.5-3.5v-7c0-0.4-0.3-0.7-0.7-0.7c-0.4,0-0.7,0.3-0.7,0.7v7
	c0,1.2-0.9,2.1-2.1,2.1h-4.5v-7c0-0.4-0.3-0.7-0.7-0.7c-0.4,0-0.7,0.3-0.7,0.7v7h-1.4V11.7h10.1c1.2,0,2.1-0.9,2.1-2.1V7.5
	c0-1.2-0.9-2.1-2.1-2.1H17c0.3-0.5,0.5-1.1,0.5-1.7c0-1.7-1.4-3.1-3.1-3.1c-1,0-1.9,0.5-2.4,1.2C11.4,1,10.5,0.5,9.6,0.5
	c-1.7,0-3.1,1.4-3.1,3.1c0,0.6,0.2,1.2,0.5,1.7H2.6c-1.2,0-2.1,0.9-2.1,2.1v2.1c0,0.9,0.6,1.7,1.4,2V20C1.9,21.9,3.5,23.5,5.4,23.5z
	 M9.9,22.1H5.4c-1.2,0-2.1-0.9-2.1-2.1v-8.4h6.6V22.1z M21.4,6.8c0.4,0,0.7,0.3,0.7,0.7v2.1c0,0.4-0.3,0.7-0.7,0.7h-7.3V6.8H21.4z
	 M14.4,1.9c1,0,1.7,0.8,1.7,1.7s-0.8,1.7-1.7,1.7s-1.7-0.8-1.7-1.7S13.5,1.9,14.4,1.9z M12.7,6.8v3.5h-1.4V6.8H12.7z M9.6,1.9
	c1,0,1.7,0.8,1.7,1.7s-0.8,1.7-1.7,1.7S7.8,4.6,7.8,3.6S8.6,1.9,9.6,1.9z M1.9,7.5c0-0.4,0.3-0.7,0.7-0.7h7.3v3.5H2.6
	c-0.4,0-0.7-0.3-0.7-0.7V7.5z"/>
<circle class="st0" cx="12" cy="12" r="0.7"/>
</svg>
