<?xml version="1.0" encoding="utf-8"?>
<!-- Generator: Adobe Illustrator 25.2.0, SVG Export Plug-In . SVG Version: 6.00 Build 0)  -->
<svg version="1.1" id="Layer_1" xmlns="http://www.w3.org/2000/svg" xmlns:xlink="http://www.w3.org/1999/xlink" x="0px" y="0px"
	 width="14px" height="10.4px" viewBox="0 0 14 10.4" style="enable-background:new 0 0 14 10.4;" xml:space="preserve">
<style type="text/css">
	.st0{fill-rule:evenodd;clip-rule:evenodd;}
</style>
<path id="_" class="st0" d="M4.7,10.2c0.3,0.3,0.7,0.3,1,0c0,0,0,0,0,0l8.1-8c0.3-0.3,0.3-0.7,0-1c0,0,0,0,0,0l-1-1
	c-0.3-0.3-0.7-0.3-1,0c0,0,0,0,0,0L5.2,6.8L2.2,3.7c-0.3-0.3-0.7-0.3-1,0c0,0,0,0,0,0l-1,1c-0.3,0.3-0.3,0.7,0,1L4.7,10.2z"/>
</svg>
