<?xml version="1.0" encoding="utf-8"?>
<!-- Generator: Adobe Illustrator 25.3.1, SVG Export Plug-In . SVG Version: 6.00 Build 0)  -->
<svg version="1.1" id="Layer_1" xmlns="http://www.w3.org/2000/svg" xmlns:xlink="http://www.w3.org/1999/xlink" x="0px" y="0px"
	 width="24px" height="24px" viewBox="0 0 24 24" style="enable-background:new 0 0 24 24;" xml:space="preserve">
<style type="text/css">
	.st0{fill:#010101;}
</style>
<g>
	<path class="st0" d="M17,12.7c-0.1,0.1-0.2,0.2-0.3,0.4c-0.4,0.4-0.8,0.9-1.1,1.3v5h-13v-13h13v0.9c0.6-0.5,1.3-1.1,2-1.7V4.3H0.5
		v17.1h17.1v-9.5C17.4,12.2,17.2,12.4,17,12.7z"/>
	<g>
		<path class="st0" d="M23.5,2.6c-0.1-0.1-0.2-0.1-0.2,0c-0.6,0.5-1.2,1-1.8,1.4l-0.9,0.7l-0.9,0.7c-1.2,1-2.4,2-3.6,3
			c-0.6,0.5-1.2,1-1.8,1.5c-0.6,0.5-1.2,1-1.8,1.5c-0.6,0.5-1.2,1-1.8,1.5c-0.2,0.2-0.4,0.3-0.5,0.5c-0.1-0.1-0.2-0.2-0.3-0.3
			c-0.6-0.4-1.2-0.9-1.8-1.3s-1.3-0.8-1.9-1.2l-0.5-0.3c-0.2-0.1-0.3-0.2-0.5-0.3C4.6,10,4.2,9.8,3.8,9.7c0,0-0.1,0-0.2,0
			c-0.1,0-0.1,0.2-0.1,0.3c0.2,0.4,0.4,0.7,0.6,1c0.1,0.2,0.2,0.3,0.3,0.5l0.3,0.5c0.4,0.6,0.9,1.2,1.3,1.8C6.5,14.4,7,15,7.5,15.5
			c0.5,0.6,1,1.1,1.5,1.7c0.6,0.6,1.6,0.7,2.3,0.1l0.2-0.2c0.3-0.2,0.6-0.5,0.8-0.8c0.3-0.3,0.5-0.6,0.8-0.9c0.5-0.6,1-1.2,1.5-1.8
			c0.5-0.6,1-1.2,1.5-1.8c0.5-0.6,1-1.2,1.5-1.8c1-1.2,2-2.4,3-3.6l0.7-0.9L22,4.7c0.5-0.6,1-1.2,1.4-1.8
			C23.5,2.8,23.5,2.7,23.5,2.6z"/>
	</g>
</g>
</svg>
