<?xml version="1.0" encoding="utf-8"?>
<!-- Generator: Adobe Illustrator 25.2.0, SVG Export Plug-In . SVG Version: 6.00 Build 0)  -->
<svg version="1.1" id="Layer_1" xmlns="http://www.w3.org/2000/svg" xmlns:xlink="http://www.w3.org/1999/xlink" x="0px" y="0px"
	 width="24px" height="24px" viewBox="0 0 24 24" style="enable-background:new 0 0 24 24;" xml:space="preserve">
<style type="text/css">
	.st0{fill-rule:evenodd;clip-rule:evenodd;fill:#010101;}
</style>
<path class="st0" d="M3,23.5c-0.6,0-1.2-0.2-1.8-0.8c-0.6-0.6-0.8-1-0.8-1.8c0-0.6,0.2-1.4,0.8-1.8L8.5,12L1.3,4.7
	C0.7,4.2,0.5,3.6,0.5,3c0-0.6,0.2-1.4,0.8-1.8c1-1,2.5-1,3.3,0L12,8.5l7.4-7.2c2.4-2,5.6,0.8,3.3,3.5L15.5,12l7.2,7.2
	c0.4,0.4,0.8,1.2,0.8,1.8c0,0.6-0.2,1.4-0.8,1.8c-1,1-2.5,1-3.3,0L12,15.5l-7.4,7.2C4.2,23.3,3.6,23.5,3,23.5z"/>
</svg>
