<?xml version="1.0" encoding="utf-8"?>
<!-- Generator: Adobe Illustrator 25.3.1, SVG Export Plug-In . SVG Version: 6.00 Build 0)  -->
<svg version="1.1" id="Layer_1" xmlns="http://www.w3.org/2000/svg" xmlns:xlink="http://www.w3.org/1999/xlink" x="0px" y="0px"
	 width="24px" height="24px" viewBox="0 0 24 24" style="enable-background:new 0 0 24 24;" xml:space="preserve">
<style type="text/css">
	.st0{fill:#010101;}
</style>
<g>
	<path class="st0" d="M18.3,1.4l-9.9,9.9c-0.1,0.1-0.2,0.3-0.2,0.5v3.3c0,0.4,0.3,0.8,0.8,0.8h3.3c0.2,0,0.4-0.1,0.5-0.2l9.9-9.9
		c1.2-1.2,1.2-3.1,0-4.3C21.4,0.2,19.5,0.2,18.3,1.4z M11.9,14.3H9.7v-2.2l7.5-7.5l2.2,2.2L11.9,14.3z M21.5,4.6l-1.1,1.1l-2.2-2.2
		l1.1-1.1c0.6-0.6,1.6-0.6,2.2,0C22.1,3.1,22.1,4,21.5,4.6z"/>
	<path class="st0" d="M11.2,3.5c0.7,0,1.3,0.1,2,0.2c0.4,0.1,0.8-0.2,0.9-0.6c0.1-0.4-0.2-0.8-0.6-0.9c0,0,0,0,0,0
		C7.7,1,2,4.7,0.7,10.5S3.1,22,8.9,23.2c5.8,1.3,11.5-2.4,12.8-8.2c0.3-1.5,0.3-3.1,0-4.6c-0.1-0.4-0.5-0.7-0.9-0.6
		c-0.4,0.1-0.7,0.5-0.6,0.9c1.1,5-2,9.9-7,11c-5,1.1-9.9-2-11-7s2-9.9,7-11C9.9,3.6,10.6,3.5,11.2,3.5z"/>
</g>
</svg>
