<?xml version="1.0" encoding="utf-8"?>
<!-- Generator: Adobe Illustrator 25.0.1, SVG Export Plug-In . SVG Version: 6.00 Build 0)  -->
<svg version="1.1" id="Layer_1" xmlns="http://www.w3.org/2000/svg" xmlns:xlink="http://www.w3.org/1999/xlink" x="0px" y="0px"
	 width="13.5px" height="13px" viewBox="0 0 13.5 13" style="enable-background:new 0 0 13.5 13;" xml:space="preserve">
<path d="M10.3,8l2.8-2.3c0.4-0.3,0.2-1-0.3-1L9.1,4.4c-0.2,0-0.4-0.2-0.5-0.4L7.3,0.6c-0.2-0.5-0.9-0.5-1.1,0L4.9,4
	C4.8,4.2,4.6,4.4,4.4,4.4L0.8,4.6c-0.5,0-0.7,0.7-0.3,1l2.8,2.3c0.2,0.1,0.2,0.4,0.2,0.6l-0.9,3.5C2.4,12.6,3,13,3.4,12.7l3.1-2
	c0.2-0.1,0.4-0.1,0.6,0l3.1,2c0.4,0.3,1-0.1,0.9-0.6l-0.9-3.5C10,8.3,10.1,8.1,10.3,8z"/>
</svg>
