<?xml version="1.0" encoding="utf-8"?>
<!-- Generator: Adobe Illustrator 25.3.1, SVG Export Plug-In . SVG Version: 6.00 Build 0)  -->
<svg version="1.1" id="Layer_1" xmlns="http://www.w3.org/2000/svg" xmlns:xlink="http://www.w3.org/1999/xlink" x="0px" y="0px"
	 width="24px" height="24px" viewBox="0 0 24 24" style="enable-background:new 0 0 24 24;" xml:space="preserve">
<style type="text/css">
	.st0{fill:#010101;}
</style>
<g>
	<path class="st0" d="M20.9,3.5v4.7h2.6V3.5c0-1.6-1.3-3-3-3h-4.7v2.6h4.7C20.8,3.1,20.9,3.2,20.9,3.5z"/>
	<path class="st0" d="M23.5,20.5v-4.7h-2.6v4.7c0,0.2-0.2,0.4-0.4,0.4h-4.7v2.6h4.7C22.2,23.5,23.5,22.2,23.5,20.5z"/>
	<path class="st0" d="M3.5,23.5h4.7v-2.6H3.5c-0.2,0-0.4-0.2-0.4-0.4v-4.7H0.5v4.7C0.5,22.2,1.8,23.5,3.5,23.5z"/>
	<path class="st0" d="M3.1,3.5c0-0.2,0.2-0.4,0.4-0.4h4.7V0.5H3.5c-1.6,0-3,1.3-3,3v4.7h2.6V3.5z"/>
</g>
</svg>
