<?xml version="1.0" encoding="utf-8"?>
<!-- Generator: Adobe Illustrator 25.3.1, SVG Export Plug-In . SVG Version: 6.00 Build 0)  -->
<svg version="1.1" id="Layer_1" xmlns="http://www.w3.org/2000/svg" xmlns:xlink="http://www.w3.org/1999/xlink" x="0px" y="0px"
	 width="24px" height="24px" viewBox="0 0 24 24" style="enable-background:new 0 0 24 24;" xml:space="preserve">
<style type="text/css">
	.st0{fill:#010101;}
</style>
<path class="st0" d="M12,6.9H2.4c-0.2,0,0,0-0.1,0c-0.2,0-0.5,0-0.7-0.1C1.1,6.7,0.8,6.4,0.6,6C0.5,5.9,0.5,5.7,0.5,5.5
	s0-0.3,0.1-0.5c0.2-0.4,0.5-0.7,1-0.8C1.8,4.1,2,4.1,2.3,4.1c0,0-0.1,0,0.1,0h19.2c0.2,0,0,0,0.1,0c0.2,0,0.5,0,0.7,0.1
	c0.5,0.1,0.8,0.5,1,0.8c0.1,0.2,0.1,0.3,0.1,0.5s0,0.3-0.1,0.5c-0.2,0.4-0.5,0.7-1,0.8c-0.3,0.1-0.5,0.1-0.7,0.1c0,0,0.1,0-0.1,0H12
	L12,6.9z M2.4,16.3h19.2c0.2,0,0,0,0.1,0c0.2,0,0.5,0,0.7,0.1c0.5,0.1,0.8,0.5,1,0.8c0.1,0.2,0.1,0.3,0.1,0.5s0,0.3-0.1,0.5
	c-0.2,0.4-0.5,0.7-1,0.8c-0.3,0.1-0.5,0.1-0.7,0.1c0,0,0.1,0-0.1,0H2.4c-0.2,0,0,0-0.1,0c-0.2,0-0.5,0-0.7-0.1
	c-0.5-0.1-0.8-0.5-1-0.8c-0.1-0.2-0.1-0.3-0.1-0.5s0-0.3,0.1-0.5c0.2-0.4,0.5-0.7,1-0.8C1.8,16.3,2,16.3,2.4,16.3
	C2.3,16.3,2.2,16.3,2.4,16.3L2.4,16.3z M12,13H2.4c-0.2,0,0,0-0.1,0C2,13,1.8,13,1.6,13c-0.5-0.1-0.8-0.5-1-0.8
	c-0.1-0.2-0.1-0.3-0.1-0.5c0-0.2,0-0.3,0.1-0.5c0.2-0.4,0.5-0.7,1-0.8c0.3-0.1,0.5-0.1,0.7-0.1c0,0-0.1,0,0.1,0h19.2
	c0.2,0,0,0,0.1,0c0.2,0,0.5,0,0.7,0.1c0.5,0.1,0.8,0.5,1,0.8c0.1,0.2,0.1,0.3,0.1,0.5c0,0.2,0,0.3-0.1,0.5c-0.2,0.4-0.5,0.7-1,0.8
	C22.2,13,22,13,21.7,13c0,0,0.1,0-0.1,0H12L12,13z"/>
</svg>
