<?xml version="1.0" encoding="utf-8"?>
<!-- Generator: Adobe Illustrator 25.3.1, SVG Export Plug-In . SVG Version: 6.00 Build 0)  -->
<svg version="1.1" id="Layer_1" xmlns="http://www.w3.org/2000/svg" xmlns:xlink="http://www.w3.org/1999/xlink" x="0px" y="0px"
	 width="24px" height="24px" viewBox="0 0 24 24" style="enable-background:new 0 0 24 24;" xml:space="preserve">
<style type="text/css">
	.st0{fill:#010101;}
</style>
<g transform="translate(0,-952.36218)">
	<path class="st0" d="M11.5,952.9c-1.2,0-2.1,0.9-2.1,2.1v0.6c-0.3-0.2-0.7-0.3-1-0.3c-1.2,0-2.1,0.9-2.1,2.1v3.8
		c-1.2,0.3-2.1,1.3-2.1,2.5v3.9c0,1.3,0.7,2.6,1.6,3.8c0.8,1.1,1.7,2,2.4,2.7v1.4c0,0.3,0.2,0.5,0.5,0.5h8.9c0.3,0,0.5-0.2,0.5-0.5
		v-2.7c1.1-1.2,1.8-2.8,1.8-4.6v-3.4v-5.3c0-1.1-0.9-2.1-2.1-2.1c-0.4,0-0.7,0.1-1,0.3v-1.1c0-1.1-0.9-2.1-2.1-2.1
		c-0.4,0-0.8,0.1-1.1,0.3C13.5,953.7,12.6,952.9,11.5,952.9z M11.5,953.9c0.6,0,1,0.4,1,1v9.2c0,0.3,0.2,0.5,0.5,0.5
		c0.3,0,0.5-0.3,0.5-0.5v-7.6c0-0.6,0.4-1,1-1c0.6,0,1,0.4,1,1v7.6c0,0.3,0.2,0.5,0.5,0.5c0.3,0,0.5-0.3,0.5-0.5c0,0,0-4.7,0-4.8
		c0-0.6,0.4-1,1-1c0.6,0,1,0.4,1,1v5.3v3.4c0,1.6-0.6,3-1.7,4.1c-0.1,0.1-0.2,0.2-0.2,0.4v2.4H9.1v-1c0-0.1-0.1-0.3-0.2-0.4
		c-0.6-0.6-1.6-1.6-2.4-2.7s-1.4-2.3-1.4-3.2v-3.9c0-0.7,0.4-1.3,1-1.5v4.9c0,0.3,0.2,0.5,0.5,0.5c0.3,0,0.5-0.3,0.5-0.5v-9.7
		c0-0.6,0.4-1,1-1s1,0.4,1,1c0,0,0,6.8,0,6.8c0,0.3,0.2,0.5,0.5,0.5s0.5-0.3,0.5-0.5v-9.2C10.4,954.4,10.9,953.9,11.5,953.9z"/>
</g>
</svg>
