<svg xmlns="http://www.w3.org/2000/svg" width="12" height="12" viewBox="0 0 12 12">
    <path fill="#FFF" d="M11.334 6H10v5.333H7.333V8H4.667v3.333H2V6H.667L6 .666l2.667 2.667V2H10v2.667L11.334 6zM10 1.333H8.667c-.286 0-.53.18-.624.433L6.47.196c-.26-.261-.682-.261-.942 0L.196 5.527c-.191.191-.249.478-.145.727.103.249.346.411.616.411h.666v4.667c0 .368.3.667.667.667h2.667c.368 0 .667-.299.667-.667V8.666h1.333v2.667c0 .368.298.667.666.667H10c.368 0 .667-.299.667-.667V6.666h.667c.269 0 .512-.162.615-.411.103-.25.046-.536-.144-.727l-1.138-1.137V2c0-.368-.299-.667-.667-.667z"/>
</svg>
