<?xml version="1.0" encoding="utf-8"?>
<!-- Generator: Adobe Illustrator 25.3.1, SVG Export Plug-In . SVG Version: 6.00 Build 0)  -->
<svg version="1.1" id="Layer_1" xmlns="http://www.w3.org/2000/svg" xmlns:xlink="http://www.w3.org/1999/xlink" x="0px" y="0px"
	 width="24px" height="24px" viewBox="0 0 24 24" style="enable-background:new 0 0 24 24;" xml:space="preserve">
<g>
	<g>
		<g>
			<path d="M22.4,5.1c-0.6,0-1.1,0.5-1.1,1.1c0,0.3,0.2,0.6,0.4,0.8v1.8V9v3.6H21V11h-0.7V7.7h-4.7v0c-2.4-3.5-8-3.5-10.3,0H0.5
				v11.2h19.8v-3.3H21V14h2.1V9V8.8V7c0.3-0.2,0.4-0.5,0.4-0.8C23.5,5.6,23,5.1,22.4,5.1z M19,17.6H1.8V9H19V17.6z"/>
		</g>
	</g>
	<polygon points="5.3,11.1 5.9,12.4 7.4,12.6 6.3,13.6 6.6,15.1 5.3,14.4 3.9,15.1 4.2,13.6 3.1,12.6 4.6,12.4 	"/>
	<polygon points="10.4,11.1 11,12.4 12.5,12.6 11.4,13.6 11.7,15.1 10.4,14.4 9.1,15.1 9.4,13.6 8.3,12.6 9.8,12.4 	"/>
	<polygon points="15.6,11.1 16.2,12.4 17.7,12.6 16.6,13.6 16.9,15.1 15.6,14.4 14.3,15.1 14.5,13.6 13.5,12.6 14.9,12.4 	"/>
</g>
</svg>
