<?xml version="1.0" encoding="utf-8"?>
<!-- Generator: Adobe Illustrator 25.3.1, SVG Export Plug-In . SVG Version: 6.00 Build 0)  -->
<svg version="1.1" id="Layer_1" xmlns="http://www.w3.org/2000/svg" xmlns:xlink="http://www.w3.org/1999/xlink" x="0px" y="0px"
	 width="24px" height="24px" viewBox="0 0 24 24" style="enable-background:new 0 0 24 24;" xml:space="preserve">
<style type="text/css">
	.st0{fill:#010101;}
</style>
<path class="st0" d="M19.5,13.5v1.2c-1.4,0.3-2.4,1.5-2.4,2.9v0.5c0,1.6,1.3,2.9,2.9,2.9h0.5c1.6,0,2.9-1.3,2.9-2.9v-0.5
	c0-1.4-1-2.6-2.4-2.9v-1.2c0-1.3-1-2.3-2.3-2.3h-6V9.4h0.5c1.6,0,2.9-1.3,2.9-2.9V5.9c0-1.6-1.3-2.9-2.9-2.9h-2.6
	C9.1,3,7.8,4.3,7.8,5.9v0.5c0,1.6,1.3,2.9,2.9,2.9h0.5v1.8h-6c-1.3,0-2.3,1-2.3,2.3v1.2c-1.4,0.3-2.4,1.5-2.4,2.9v0.5
	c0,1.6,1.3,2.9,2.9,2.9h0.5c1.6,0,2.9-1.3,2.9-2.9v-0.5c0-1.4-1-2.6-2.4-2.9v-1.2c0-0.4,0.3-0.7,0.7-0.7h6v1.8
	c-1.4,0.3-2.4,1.5-2.4,2.9v0.5c0,1.6,1.3,2.9,2.9,2.9h0.5c1.6,0,2.9-1.3,2.9-2.9v-0.5c0-1.4-1-2.6-2.4-2.9v-1.8h6
	C19.2,12.8,19.5,13.1,19.5,13.5z M20.6,16.2c0.7,0,1.3,0.6,1.3,1.3v0.5c0,0.7-0.6,1.3-1.3,1.3h-0.5c-0.7,0-1.3-0.6-1.3-1.3v-0.5
	c0-0.7,0.6-1.3,1.3-1.3H20.6z M10.7,7.8c-0.7,0-1.3-0.6-1.3-1.3V5.9c0-0.7,0.6-1.3,1.3-1.3h2.6c0.7,0,1.3,0.6,1.3,1.3v0.5
	c0,0.7-0.6,1.3-1.3,1.3H10.7z M3.9,16.2c0.7,0,1.3,0.6,1.3,1.3v0.5c0,0.7-0.6,1.3-1.3,1.3H3.4c-0.7,0-1.3-0.6-1.3-1.3v-0.5
	c0-0.7,0.6-1.3,1.3-1.3H3.9z M12.3,16.2c0.7,0,1.3,0.6,1.3,1.3v0.5c0,0.7-0.6,1.3-1.3,1.3h-0.5c-0.7,0-1.3-0.6-1.3-1.3v-0.5
	c0-0.7,0.6-1.3,1.3-1.3H12.3z"/>
</svg>
