<?xml version="1.0" encoding="utf-8"?>
<!-- Generator: Adobe Illustrator 25.3.1, SVG Export Plug-In . SVG Version: 6.00 Build 0)  -->
<svg version="1.1" id="Layer_1" xmlns="http://www.w3.org/2000/svg" xmlns:xlink="http://www.w3.org/1999/xlink" x="0px" y="0px"
	 width="24px" height="24px" viewBox="0 0 24 24" style="enable-background:new 0 0 24 24;" xml:space="preserve">
<style type="text/css">
	.st0{fill:#010101;}
</style>
<path class="st0" d="M20.4,2.6H7.8C6.1,2.6,4.7,4,4.7,5.7v1h-1c-1.7,0-3.1,1.4-3.1,3.1v8.4c0,1.7,1.4,3.1,3.1,3.1h12.5
	c1.7,0,3.1-1.4,3.1-3.1v-1h1c1.7,0,3.1-1.4,3.1-3.1V5.7C23.5,4,22.1,2.6,20.4,2.6z M18.3,18.3c0,1.2-0.9,2.1-2.1,2.1H3.6
	c-1.2,0-2.1-0.9-2.1-2.1v-4.2h16.7V18.3z M18.3,11H1.5v-1c0-1.2,0.9-2.1,2.1-2.1h12.5c1.2,0,2.1,0.9,2.1,2.1V11z M22.5,14.1
	c0,1.2-0.9,2.1-2.1,2.1h-1V9.9h3.1V14.1z M22.5,6.8H5.7v-1c0-1.2,0.9-2.1,2.1-2.1h12.5c1.2,0,2.1,0.9,2.1,2.1V6.8z"/>
</svg>
