<?xml version="1.0" encoding="utf-8"?>
<!-- Generator: Adobe Illustrator 25.0.1, SVG Export Plug-In . SVG Version: 6.00 Build 0)  -->
<svg version="1.1" id="Layer_1" xmlns="http://www.w3.org/2000/svg" xmlns:xlink="http://www.w3.org/1999/xlink" x="0px" y="0px"
	 width="12px" height="12px" viewBox="0 0 12 12" style="enable-background:new 0 0 12 12;" xml:space="preserve">
<style type="text/css">
	.st0{fill-rule:evenodd;clip-rule:evenodd;}
</style>
<path class="st0" d="M8.3,5.1c0-1.8-1.4-3.2-3.2-3.3c-1.8,0-3.2,1.4-3.3,3.2c0,1.8,1.4,3.2,3.2,3.3c0.9,0,1.7-0.3,2.3-0.9
	C8,6.8,8.3,5.9,8.3,5.1z M12,11.1c0,0.5-0.4,0.9-0.9,0.9c-0.2,0-0.5-0.1-0.6-0.3L8,9.3c-0.8,0.6-1.8,0.9-2.9,0.9
	c-0.7,0-1.4-0.1-2-0.4C1.9,9.2,0.9,8.3,0.4,7c-0.5-1.3-0.5-2.7,0-3.9c0.5-1.2,1.5-2.2,2.7-2.7C5-0.4,7.2,0,8.7,1.5
	c0.5,0.5,0.8,1,1.1,1.6c0.7,1.6,0.5,3.4-0.5,4.8l2.5,2.5C11.9,10.6,12,10.8,12,11.1z"/>
</svg>
