<?xml version="1.0" encoding="utf-8"?>
<!-- Generator: Adobe Illustrator 25.3.1, SVG Export Plug-In . SVG Version: 6.00 Build 0)  -->
<svg version="1.1" id="Layer_1" xmlns="http://www.w3.org/2000/svg" xmlns:xlink="http://www.w3.org/1999/xlink" x="0px" y="0px"
	 width="24px" height="24px" viewBox="0 0 24 24" style="enable-background:new 0 0 24 24;" xml:space="preserve">
<style type="text/css">
	.st0{fill:#010101;}
</style>
<path class="st0" d="M10.8,0.5C9.4,0.5,8.3,1.6,8.3,3v0.1L8.2,3c-1-1-2.5-1-3.5,0L3,4.7c-1,1-1,2.5,0,3.5l0.1,0.1H3
	c-1.4,0-2.5,1.1-2.5,2.5v2.5c0,1.4,1.1,2.5,2.5,2.5h0.1L3,15.8c-1,1-1,2.5,0,3.5L4.7,21c1,1,2.5,1,3.5,0l0.1-0.1V21
	c0,1.4,1.1,2.5,2.5,2.5h2.5c1.4,0,2.5-1.1,2.5-2.5v-0.1l0.1,0.1c1,1,2.5,1,3.5,0l1.7-1.7c1-1,1-2.5,0-3.5l-0.1-0.1H21
	c1.4,0,2.5-1.1,2.5-2.5v-2.5c0-1.4-1.1-2.5-2.5-2.5h-0.1L21,8.2c1-1,1-2.5,0-3.5L19.3,3c-1-1-2.5-1-3.5,0l-0.1,0.1V3
	c0-1.4-1.1-2.5-2.5-2.5L10.8,0.5z M10.8,2.1h2.5c0.5,0,0.8,0.4,0.8,0.8v0.9c0,0.3,0.2,0.7,0.5,0.8c0.3,0.1,0.5,0.2,0.8,0.3
	c0.3,0.2,0.7,0.1,0.9-0.2l0.6-0.6c0.3-0.3,0.8-0.3,1.2,0l1.7,1.7c0.3,0.3,0.3,0.8,0,1.2l-0.6,0.6C19,7.9,18.9,8.3,19,8.6
	c0.1,0.2,0.2,0.5,0.3,0.8c0.1,0.3,0.4,0.5,0.8,0.5H21c0.5,0,0.8,0.4,0.8,0.8v2.5c0,0.5-0.4,0.8-0.8,0.8h-0.9c-0.3,0-0.7,0.2-0.8,0.5
	c-0.1,0.3-0.2,0.5-0.3,0.8c-0.2,0.3-0.1,0.7,0.2,0.9l0.6,0.6c0.3,0.3,0.3,0.8,0,1.2l-1.7,1.7c-0.3,0.3-0.8,0.3-1.2,0l-0.6-0.6
	c-0.2-0.2-0.6-0.3-0.9-0.2c-0.2,0.1-0.5,0.2-0.8,0.3c-0.3,0.1-0.5,0.4-0.5,0.8V21c0,0.5-0.4,0.8-0.8,0.8h-2.5
	c-0.5,0-0.8-0.4-0.8-0.8v-0.9c0-0.3-0.2-0.7-0.5-0.8c-0.3-0.1-0.5-0.2-0.8-0.3c-0.3-0.2-0.7-0.1-0.9,0.2l-0.6,0.6
	c-0.3,0.3-0.8,0.3-1.2,0l-1.7-1.7c-0.3-0.3-0.3-0.8,0-1.2l0.6-0.6C5,16.1,5.1,15.7,5,15.4c-0.1-0.2-0.2-0.5-0.3-0.8
	c-0.1-0.3-0.4-0.5-0.8-0.5H3c-0.5,0-0.8-0.4-0.8-0.8v-2.5c0-0.5,0.4-0.8,0.8-0.8h0.9c0.3,0,0.7-0.2,0.8-0.5C4.7,9.1,4.8,8.9,5,8.6
	C5.1,8.3,5,7.9,4.8,7.7L4.2,7.1c-0.3-0.3-0.3-0.8,0-1.2l1.7-1.7c0.3-0.3,0.8-0.3,1.2,0l0.6,0.6C7.9,5,8.3,5.1,8.6,5
	c0.2-0.1,0.5-0.2,0.8-0.3c0.3-0.1,0.5-0.4,0.5-0.8V3C9.9,2.5,10.3,2.1,10.8,2.1z"/>
<path class="st0" d="M12,6.2c-3.2,0-5.7,2.6-5.7,5.7c0,3.2,2.6,5.8,5.7,5.8s5.8-2.6,5.8-5.8C17.8,8.8,15.2,6.2,12,6.2z M12,7.9
	c2.3,0,4.1,1.8,4.1,4.1s-1.8,4.1-4.1,4.1S7.9,14.3,7.9,12S9.7,7.9,12,7.9z"/>
</svg>
