<svg xmlns="http://www.w3.org/2000/svg" width="12" height="14" viewBox="0 0 12 14">
  <defs>
    <style>
      .cls-1 {
        fill-rule: evenodd;
      }
    </style>
  </defs>
  <path class="cls-1" d="M2778.85,402.67a2.155,2.155,0,0,0-1.39.507l-4.22-2.657a2.3,2.3,0,0,0,.07-0.52,1.76,1.76,0,0,0-.07-0.508l4.23-2.661a2.166,2.166,0,1,0-.78-1.666,1.981,1.981,0,0,0,.09.589l-4.19,2.636a2.165,2.165,0,1,0-.01,3.228l4.19,2.64a2.256,2.256,0,0,0-.08.577A2.155,2.155,0,1,0,2778.85,402.67Zm0.87,2.165a0.875,0.875,0,1,1-.87-0.881A0.876,0.876,0,0,1,2779.72,404.835Zm-1.75-9.67a0.875,0.875,0,1,1,.88.881A0.878,0.878,0,0,1,2777.97,395.165ZM2772.03,400a0.875,0.875,0,1,1-.88-0.881A0.878,0.878,0,0,1,2772.03,400Z" transform="translate(-2769 -393)"/>
</svg>
