<?xml version="1.0" encoding="utf-8"?>
<!-- Generator: Adobe Illustrator 25.0.1, SVG Export Plug-In . SVG Version: 6.00 Build 0)  -->
<svg version="1.1" id="Layer_1" xmlns="http://www.w3.org/2000/svg" xmlns:xlink="http://www.w3.org/1999/xlink" x="0px" y="0px"
	 width="24px" height="24px" viewBox="0 0 24 24" style="enable-background:new 0 0 24 24;" xml:space="preserve">
<style type="text/css">
	.st0{fill-rule:evenodd;clip-rule:evenodd;fill:#010101;}
</style>
<path id="_" class="st0" d="M12,0.5c6.4,0,11.5,5.2,11.5,11.5c0,6.4-5.2,11.5-11.5,11.5C5.6,23.5,0.5,18.4,0.5,12
	C0.5,5.6,5.6,0.5,12,0.5C12,0.5,12,0.5,12,0.5z M9.9,17c0.3,0.3,0.7,0.3,1,0l8.1-8.1c0.3-0.3,0.3-0.7,0-1c0,0,0,0,0,0l-1-1
	c-0.3-0.3-0.7-0.3-1,0c0,0,0,0,0,0l-6.6,6.6l-3.1-3.1c-0.3-0.3-0.7-0.3-1,0l-1,1c-0.3,0.3-0.3,0.7,0,1c0,0,0,0,0,0L9.9,17z"/>
</svg>
