<?xml version="1.0" encoding="utf-8"?>
<!-- Generator: Adobe Illustrator 25.3.1, SVG Export Plug-In . SVG Version: 6.00 Build 0)  -->
<svg version="1.1" id="Layer_1" xmlns="http://www.w3.org/2000/svg" xmlns:xlink="http://www.w3.org/1999/xlink" x="0px" y="0px"
	 width="14.5px" height="14.5px" viewBox="0 0 14.5 14.5" style="enable-background:new 0 0 14.5 14.5;" xml:space="preserve">
<style type="text/css">
	.st0{fill-rule:evenodd;clip-rule:evenodd;}
</style>
<path class="st0" d="M5.4,0.2C5.4,0.2,5.4,0.2,5.4,0.2C5.3,0.1,5.1,0,5,0H0.6C0.3,0,0,0.3,0,0.6V5c0,0.3,0.3,0.6,0.6,0.6H5
	c0.3,0,0.6-0.3,0.6-0.6V0.6C5.6,0.5,5.5,0.3,5.4,0.2L5.4,0.2z M14.3,0.2C14.3,0.2,14.3,0.2,14.3,0.2C14.2,0.1,14,0,13.9,0H9.5
	C9.2,0,8.9,0.3,8.9,0.6V5c0,0.3,0.3,0.6,0.6,0.6h4.4c0.3,0,0.6-0.3,0.6-0.6V0.6C14.5,0.5,14.4,0.3,14.3,0.2L14.3,0.2z M5.4,9.1
	C5.4,9.1,5.4,9.1,5.4,9.1C5.3,9,5.1,8.9,5,8.9H0.6C0.3,8.9,0,9.2,0,9.5v4.4c0,0.3,0.3,0.6,0.6,0.6H5c0.3,0,0.6-0.3,0.6-0.6V9.5
	C5.6,9.4,5.5,9.2,5.4,9.1L5.4,9.1z M14.3,9.1C14.3,9.1,14.3,9.1,14.3,9.1C14.2,9,14,8.9,13.9,8.9H9.5c-0.3,0-0.6,0.3-0.6,0.6v4.4
	c0,0.3,0.3,0.6,0.6,0.6h4.4c0.3,0,0.6-0.3,0.6-0.6V9.5C14.5,9.4,14.4,9.2,14.3,9.1L14.3,9.1z"/>
</svg>
