<?xml version="1.0" encoding="utf-8"?>
<!-- Generator: Adobe Illustrator 25.0.1, SVG Export Plug-In . SVG Version: 6.00 Build 0)  -->
<svg version="1.1" id="Layer_1" xmlns="http://www.w3.org/2000/svg" xmlns:xlink="http://www.w3.org/1999/xlink" x="0px" y="0px"
	 width="24px" height="24px" viewBox="0 0 24 24" style="enable-background:new 0 0 24 24;" xml:space="preserve">
<style type="text/css">
	.st0{fill-rule:evenodd;clip-rule:evenodd;fill:#FDC600;}
</style>
<path id="_" class="st0" d="M15.3,12.3c-1,0-1.6,0.6-3.3,0.6s-2.2-0.6-3.3-0.6c-2.7,0-4.9,2.2-4.9,4.9v0.9c0,1,0.8,4.7,1.8,4.7h12.8
	c1,0,1.8-3.7,1.8-4.7v-0.9C20.2,14.5,18,12.3,15.3,12.3C15.3,12.3,15.3,12.3,15.3,12.3z M18.4,21.1H5.6v-3.9C5.6,15.4,7,14,8.7,14
	c1.1,0.3,2.2,0.5,3.3,0.6c1.1-0.1,2.2-0.3,3.3-0.6c1.7,0,3.1,1.4,3.2,3.2V21.1L18.4,21.1z M12,11.7c2.9,0,5.3-2.4,5.3-5.3
	S14.9,1.2,12,1.2c-2.9,0-5.3,2.4-5.3,5.3c0,0,0,0,0,0C6.7,9.3,9.1,11.7,12,11.7z M12,2.9c1.9,0,3.5,1.6,3.5,3.5S13.9,9.9,12,9.9
	S8.5,8.4,8.5,6.4C8.5,4.5,10.1,2.9,12,2.9z"/>
</svg>
