<?xml version="1.0" encoding="utf-8"?>
<!-- Generator: Adobe Illustrator 25.3.1, SVG Export Plug-In . SVG Version: 6.00 Build 0)  -->
<svg version="1.1" id="Layer_1" xmlns="http://www.w3.org/2000/svg" xmlns:xlink="http://www.w3.org/1999/xlink" x="0px" y="0px"
	 width="24px" height="24px" viewBox="0 0 24 24" style="enable-background:new 0 0 24 24;" xml:space="preserve">
<style type="text/css">
	.st0{fill:#010101;}
</style>
<g>
	<path class="st0" d="M12,4.9c-1.8,0-3.3,1.5-3.3,3.3s1.5,3.3,3.3,3.3c1.8,0,3.3-1.5,3.3-3.3C15.3,6.4,13.8,4.9,12,4.9z M5.4,5.1
		c-1.6,0-3,1.4-3,3s1.3,3,3,3c1.6,0,3-1.3,3-3S7,5.1,5.4,5.1z M18.6,5.1c-1.6,0-3,1.4-3,3s1.3,3,3,3c1.6,0,3-1.3,3-3
		S20.3,5.1,18.6,5.1z M12,6.6c0.9,0,1.6,0.7,1.6,1.6c0,0.9-0.7,1.6-1.6,1.6c-0.9,0-1.6-0.7-1.6-1.6C10.4,7.3,11.1,6.6,12,6.6z
		 M5.4,6.7c0.7,0,1.3,0.6,1.3,1.4c0,0.8-0.6,1.3-1.3,1.3C4.6,9.4,4,8.8,4,8.1S4.6,6.7,5.4,6.7z M18.6,6.7c0.7,0,1.3,0.6,1.3,1.4
		c0,0.8-0.6,1.3-1.3,1.3c-0.7,0-1.3-0.6-1.3-1.3S17.9,6.7,18.6,6.7z M5.4,11.6c-2.7,0-4.9,2.2-4.9,4.9c0,0.5,0.4,0.8,0.8,0.8
		c0.5,0,0.8-0.4,0.8-0.8c0-1.8,1.4-3.2,3.2-3.2c0.7,0,1.4,0.3,2,0.7c-1.1,1.1-1.7,2.6-1.7,4.3c0,0.5,0.4,0.8,0.8,0.8
		c0.5,0,0.8-0.4,0.8-0.8c0-2.6,2.1-4.7,4.7-4.7s4.7,2.1,4.7,4.7c0,0.5,0.4,0.8,0.8,0.8c0.5,0,0.8-0.4,0.8-0.8c0-1.7-0.7-3.2-1.7-4.3
		c0.6-0.5,1.3-0.7,2-0.7c1.8,0,3.2,1.4,3.2,3.2c0,0.5,0.4,0.8,0.8,0.8c0.5,0,0.8-0.4,0.8-0.8c0-2.7-2.2-4.9-4.9-4.9
		c-1.2,0-2.4,0.5-3.3,1.3c-1-0.6-2.1-1-3.3-1c-1.2,0-2.4,0.4-3.3,1C7.8,12.1,6.6,11.6,5.4,11.6z"/>
</g>
</svg>
